<svg width="330" height="68" viewBox="0 0 330 68" fill="none" xmlns="http://www.w3.org/2000/svg">
<path d="M6.40745 67H0.647453V21.304H26.1835V26.36H6.40745V42.552H24.9675V47.608H6.40745V67ZM73.707 44.088C73.707 47.6293 73.259 50.8507 72.363 53.752C71.467 56.6107 70.123 59.0853 68.331 61.176C66.5816 63.2667 64.3843 64.8667 61.739 65.976C59.1363 67.0853 56.107 67.64 52.651 67.64C49.067 67.64 45.9523 67.0853 43.307 65.976C40.6616 64.824 38.4643 63.224 36.715 61.176C34.9656 59.0853 33.6643 56.5893 32.811 53.688C31.9576 50.7867 31.531 47.5653 31.531 44.024C31.531 39.3307 32.299 35.2347 33.835 31.736C35.371 28.2373 37.6963 25.5067 40.811 23.544C43.9683 21.5813 47.9363 20.6 52.715 20.6C57.2803 20.6 61.1203 21.5813 64.235 23.544C67.3496 25.464 69.6963 28.1947 71.275 31.736C72.8963 35.2347 73.707 39.352 73.707 44.088ZM37.611 44.088C37.611 47.928 38.1443 51.2347 39.211 54.008C40.2776 56.7813 41.9203 58.9147 44.139 60.408C46.4003 61.9013 49.2376 62.648 52.651 62.648C56.107 62.648 58.923 61.9013 61.099 60.408C63.3176 58.9147 64.9603 56.7813 66.027 54.008C67.0936 51.2347 67.627 47.928 67.627 44.088C67.627 38.328 66.4323 33.8267 64.043 30.584C61.6536 27.2987 57.8776 25.656 52.715 25.656C49.259 25.656 46.4003 26.4027 44.139 27.896C41.9203 29.3467 40.2776 31.4587 39.211 34.232C38.1443 36.9627 37.611 40.248 37.611 44.088ZM96.443 21.304C100.24 21.304 103.355 21.7947 105.787 22.776C108.262 23.7147 110.096 25.144 111.291 27.064C112.486 28.984 113.083 31.3947 113.083 34.296C113.083 36.728 112.635 38.7547 111.739 40.376C110.843 41.9973 109.691 43.2987 108.283 44.28C106.918 45.2187 105.467 45.9653 103.931 46.52L116.475 67H109.755L98.683 48.12H89.595V67H83.835V21.304H96.443ZM96.123 26.296H89.595V43.256H96.443C98.9176 43.256 100.944 42.936 102.523 42.296C104.102 41.6133 105.254 40.632 105.979 39.352C106.747 38.072 107.131 36.472 107.131 34.552C107.131 32.5467 106.726 30.9467 105.915 29.752C105.147 28.5573 103.952 27.6827 102.331 27.128C100.71 26.5733 98.6403 26.296 96.123 26.296ZM143.807 67L128.767 26.936H128.511C128.597 27.7893 128.661 28.8773 128.703 30.2C128.789 31.5227 128.853 32.9733 128.895 34.552C128.938 36.088 128.959 37.6667 128.959 39.288V67H123.647V21.304H132.159L146.239 58.744H146.495L160.831 21.304H169.279V67H163.583V38.904C163.583 37.4107 163.605 35.9387 163.647 34.488C163.69 32.9947 163.754 31.608 163.839 30.328C163.925 29.0053 163.989 27.896 164.031 27H163.775L148.543 67H143.807ZM216.462 50.872C216.462 54.0293 215.822 56.888 214.542 59.448C213.262 61.9653 211.299 63.9707 208.654 65.464C206.051 66.9147 202.723 67.64 198.67 67.64C192.995 67.64 188.665 66.104 185.678 63.032C182.734 59.9173 181.262 55.8213 181.262 50.744V21.304H187.022V50.936C187.022 54.648 188.003 57.528 189.966 59.576C191.971 61.624 194.979 62.648 198.99 62.648C201.763 62.648 204.003 62.1573 205.71 61.176C207.459 60.152 208.739 58.7653 209.55 57.016C210.361 55.224 210.766 53.176 210.766 50.872V21.304H216.462V50.872ZM228.522 67V21.304H234.282V61.88H254.25V67H228.522Z" fill="white"/>
<path d="M304.927 67L297.187 47.11H271.717L264.067 67H255.877L280.987 2.47H288.277L313.297 67H304.927ZM287.557 20.47C287.377 19.99 287.077 19.12 286.657 17.86C286.237 16.6 285.817 15.31 285.397 13.99C285.037 12.61 284.737 11.56 284.497 10.84C284.197 12.04 283.867 13.27 283.507 14.53C283.207 15.73 282.877 16.84 282.517 17.86C282.217 18.88 281.947 19.75 281.707 20.47L274.417 39.91H294.757L287.557 20.47ZM328.927 18.76V67H321.007V18.76H328.927ZM325.057 0.669996C326.257 0.669996 327.307 1.09 328.207 1.93C329.167 2.71 329.647 3.97 329.647 5.71C329.647 7.38999 329.167 8.64999 328.207 9.48999C327.307 10.33 326.257 10.75 325.057 10.75C323.737 10.75 322.627 10.33 321.727 9.48999C320.827 8.64999 320.377 7.38999 320.377 5.71C320.377 3.97 320.827 2.71 321.727 1.93C322.627 1.09 323.737 0.669996 325.057 0.669996Z" fill="#E3C148"/>
</svg>
