<svg width="28" height="38" viewBox="0 0 28 38" fill="none" xmlns="http://www.w3.org/2000/svg">
<path d="M14 22.85C12.5667 22.85 11.3667 22.3347 10.4 21.3042C9.43333 20.2736 8.95 19.0222 8.95 17.55V5C8.95 3.6111 9.44068 2.43055 10.4221 1.45835C11.4034 0.486117 12.5951 0 13.9971 0C15.399 0 16.5917 0.486117 17.575 1.45835C18.5583 2.43055 19.05 3.6111 19.05 5V17.55C19.05 19.0222 18.5667 20.2736 17.6 21.3042C16.6333 22.3347 15.4333 22.85 14 22.85ZM12.5 38V31.2C8.96667 30.8333 6 29.35 3.6 26.75C1.2 24.15 0 21.0833 0 17.55H3C3 20.5833 4.07147 23.1333 6.2144 25.2C8.35733 27.2667 10.949 28.3 13.9894 28.3C17.0298 28.3 19.625 27.2667 21.775 25.2C23.925 23.1333 25 20.5833 25 17.55H28C28 21.0833 26.8 24.15 24.4 26.75C22 29.35 19.0333 30.8333 15.5 31.2V38H12.5ZM14 19.85C14.6 19.85 15.0917 19.625 15.475 19.175C15.8583 18.725 16.05 18.1833 16.05 17.55V5C16.05 4.43333 15.8535 3.95833 15.4606 3.575C15.0677 3.19167 14.5808 3 14 3C13.4192 3 12.9323 3.19167 12.5394 3.575C12.1465 3.95833 11.95 4.43333 11.95 5V17.55C11.95 18.1833 12.1417 18.725 12.525 19.175C12.9083 19.625 13.4 19.85 14 19.85Z" fill="#086327"/>
</svg>
